PathFileType	4	(X/Y/Z)	 s10c0202.trc
DataRate	CameraRate	NumFrames	NumMarkers	Units	OrigDataRate	OrigDataStartFrame	OrigNumFrames
200	200	7	50	mm	200	1251	2000
Frame#	Time	racr			lacr			c7			jug			rlel			rdr			llel			ldr			s2			lic			ric			lasi			rasi			rpsi			lpsi			rgt			lgt			rth1			rth2			rth3			rth4			rlfc			rmfc			rsh1			rsh2			rsh3			rsh4			rlmal			rmmal			rcal			rtoe			rmt5			lth1			lth2			lth4			lth3			llfc			lmfc			llmal			lmmal			lcal			lmt5			lsh1			lsh2			lsh3			lsh4			ltoe			SBIKE			LBIKE			RBIKE			
		X1	Y1	Z1	X2	Y2	Z2	X3	Y3	Z3	X4	Y4	Z4	X5	Y5	Z5	X6	Y6	Z6	X7	Y7	Z7	X8	Y8	Z8	X9	Y9	Z9	X10	Y10	Z10	X11	Y11	Z11	X12	Y12	Z12	X13	Y13	Z13	X14	Y14	Z14	X15	Y15	Z15	X16	Y16	Z16	X17	Y17	Z17	X18	Y18	Z18	X19	Y19	Z19	X20	Y20	Z20	X21	Y21	Z21	X22	Y22	Z22	X23	Y23	Z23	X24	Y24	Z24	X25	Y25	Z25	X26	Y26	Z26	X27	Y27	Z27	X28	Y28	Z28	X29	Y29	Z29	X30	Y30	Z30	X31	Y31	Z31	X32	Y32	Z32	X33	Y33	Z33	X34	Y34	Z34	X35	Y35	Z35	X36	Y36	Z36	X37	Y37	Z37	X38	Y38	Z38	X39	Y39	Z39	X40	Y40	Z40	X41	Y41	Z41	X42	Y42	Z42	X43	Y43	Z43	X44	Y44	Z44	X45	Y45	Z45	X46	Y46	Z46	X47	Y47	Z47	X48	Y48	Z48	X49	Y49	Z49	X50	Y50	Z50	
1251	6.2550	451.522287	1248.738257	-94.725808	409.166971	1284.686357	-394.858650	393.340348	1318.859875	-239.648572	391.639546	1175.505056	-256.806487	421.989320	1022.249829	52.067586	591.964486	907.648187	1.248214	444.224723	1022.969270	-486.207063	624.910100	909.516933	-396.066323	-105.246939	1095.005449	-197.441660	32.188056	1144.487604	-355.573930	85.019622	1103.801749	-71.625057	82.556786	1051.107481	-340.803632	87.389342	1030.110227	-82.215911	-60.993142	1150.573620	-137.043953	-68.287035	1167.857891	-243.957915	-26.069571	995.738403	-20.150292	-27.238456	1003.194975	-397.267988	63.630713	873.686376	-1.331063	138.265415	827.502100	-15.852834	178.017199	752.115738	-24.563264	164.380347	854.186820	-19.545359	246.391367	666.574334	-41.801278	238.762240	666.097479	-159.706331	154.514932	596.615741	-16.298178	112.409407	520.551287	-35.731386	39.795690	474.723182	-42.127723	135.943559	504.464030	-62.016153	-36.677426	405.242983	-62.378112	-3.369447	400.860526	-139.187049	-85.607444	416.731691	-113.268865	93.614958	253.400823	-93.122134	7.666179	283.741366	-38.672648	88.820976	925.757286	-412.802453	173.612541	912.022865	-400.416313	186.935994	943.318080	-386.660721	242.907975	856.071092	-400.983457	344.816533	793.453801	-378.578765	358.323302	780.020511	-261.709188	224.470393	435.567381	-369.534608	237.851387	440.891089	-288.821158	169.030868	398.673646	-327.875436	344.490961	356.000250	-386.432957	286.217367	682.201710	-402.305433	292.622144	595.073846	-388.966563	252.272887	516.324024	-384.346774	321.194651	592.757398	-363.827695	421.452468	394.033461	-326.240716	-204.473432	833.008496	-223.972412	-78.197708	81.725130	-423.580983	-102.622377	80.452661	-24.376975	
1252	6.2600	449.919948	1249.958461	-93.114940	410.406610	1285.021690	-393.204587	392.911368	1319.496512	-238.365089	392.425805	1175.938571	-256.219841	421.571920	1022.283070	52.025198	591.636592	907.690465	0.864336	445.075602	1023.285058	-486.490657	624.792222	909.295975	-396.373656	-105.453805	1093.758621	-196.749593	32.032121	1142.881068	-356.893736	84.703330	1103.696679	-72.444896	83.176102	1050.130370	-341.722903	87.706966	1029.970509	-83.206230	-62.615257	1149.664365	-136.763321	-68.687638	1166.352282	-244.470381	-24.154686	995.040277	-20.193999	-28.794341	999.674825	-396.605192	67.359265	874.825005	-1.482461	142.755087	829.720490	-16.539574	183.263701	754.932399	-25.583748	168.225217	856.927543	-21.119887	252.622517	670.391474	-43.465035	241.658968	669.910972	-161.414463	159.968376	602.526244	-17.109628	115.967724	527.603757	-36.669717	42.188128	483.594159	-42.622575	139.190117	511.634831	-63.218050	-36.565211	416.401008	-62.412747	-4.126134	411.070007	-139.848525	-85.821404	429.036168	-112.717020	91.487434	262.847076	-93.282076	5.987532	294.229751	-38.749550	87.172317	919.784949	-413.058935	171.759442	904.249316	-401.791256	186.133831	935.507933	-388.976899	239.603630	846.493633	-401.908927	339.828592	779.829788	-380.181378	353.879105	770.173855	-263.507793	225.967044	422.876403	-369.224013	240.039121	429.029589	-287.941095	170.906615	386.764498	-329.019720	346.366649	344.999917	-386.349082	282.912896	671.141552	-402.549459	291.917857	584.386016	-389.378981	253.555380	504.683048	-383.919217	320.694312	583.208598	-364.499632	422.903150	383.983815	-326.055919	-204.477941	833.000865	-224.077327	-78.195450	81.708894	-423.586096	-102.615780	80.446300	-24.392715	
1253	6.2650	448.156464	1251.097564	-91.317051	411.605660	1284.753175	-391.220826	392.552266	1319.686509	-236.974120	392.743986	1176.089426	-254.399309	421.142545	1022.403455	52.105151	591.384989	907.818301	0.716310	446.040988	1023.544288	-486.442301	624.688328	909.138647	-396.689616	-105.796557	1092.347937	-196.261863	31.852263	1140.995074	-358.176997	84.257817	1103.602121	-73.184021	83.840125	1049.200931	-342.718478	87.690533	1029.913494	-84.308598	-62.912108	1148.628462	-137.141741	-69.124703	1164.584988	-245.092570	-22.121213	994.129882	-20.484768	-30.134509	995.707264	-396.180758	71.132135	875.941302	-1.635376	147.173009	831.911971	-17.252217	188.669082	757.775574	-26.750560	172.047821	859.585439	-22.799189	258.925512	674.436700	-45.201403	244.808788	674.006343	-162.912531	165.658350	608.716181	-17.958880	119.787632	534.888570	-37.467363	44.912503	492.586244	-42.893604	142.217680	518.617815	-64.523512	-35.783422	427.340658	-62.584800	-3.915475	422.446352	-139.864641	-85.040194	441.064818	-112.524583	90.144210	272.516726	-93.509488	5.019422	304.788964	-38.829359	85.534896	914.007447	-413.692224	169.841004	896.390668	-403.044996	184.991375	927.293621	-390.558315	235.992018	836.674638	-401.825184	334.946958	767.020673	-381.460400	347.650946	761.973548	-264.248072	226.525504	410.975570	-369.612967	240.758593	416.662536	-287.695338	171.786234	374.282974	-328.538028	347.556207	333.996423	-386.147587	280.135623	660.699654	-403.741074	290.915315	574.281500	-390.076138	253.790079	493.655759	-384.009310	319.607266	573.739170	-365.261624	423.905216	373.530083	-326.094445	-204.502235	833.030570	-224.288812	-78.219222	81.702250	-423.608730	-102.684387	80.502528	-24.484425	
1254	6.2700	446.272599	1252.444675	-89.132480	412.894070	1284.876245	-389.801230	392.033663	1320.115445	-235.754326	393.272529	1176.478954	-252.688532	420.704065	1022.414444	52.113741	591.226382	907.985036	0.739255	447.019063	1023.717238	-486.329353	624.618864	909.006891	-396.929921	-106.225656	1090.854714	-196.084390	31.843221	1138.982813	-359.709740	83.635798	1103.425268	-74.049184	84.611049	1048.043435	-343.788408	87.902831	1029.654762	-85.486069	-64.482660	1147.399943	-137.470145	-69.509065	1162.699832	-245.873406	-19.988641	993.501974	-20.807015	-31.239216	991.397525	-395.979251	74.995020	877.111017	-1.738161	151.649472	834.255824	-18.144970	194.155980	760.733308	-27.943820	175.929732	862.320615	-24.478592	265.631849	679.256792	-46.825338	248.135131	677.977640	-164.415137	171.355087	615.164537	-18.754122	123.754248	542.372344	-38.139772	47.927111	501.903346	-43.004660	145.171301	525.857101	-65.739418	-34.318465	438.683057	-62.407365	-2.357478	432.888889	-140.165788	-83.430266	452.043837	-112.470965	89.346896	282.155564	-93.657245	4.719273	315.553140	-38.787028	83.661720	907.469006	-413.626587	167.815855	888.321196	-404.273402	183.918568	919.439345	-393.423057	232.492504	827.030941	-401.988705	330.402506	755.339442	-381.848927	341.670465	754.502343	-263.775068	226.310292	399.347428	-369.310806	240.713075	405.079024	-287.599253	172.252151	362.578602	-328.408837	348.155711	323.126115	-386.112091	277.707629	650.322127	-405.216680	289.337516	563.939274	-390.542077	253.069051	482.898987	-384.651606	317.754617	563.847861	-365.488821	424.313659	363.051883	-325.923993	-204.689708	833.365739	-224.573894	-78.212793	81.729597	-423.624805	-102.857509	80.417930	-24.615574	
1255	6.2750	444.242568	1253.662067	-86.983799	414.183626	1284.877860	-388.287178	391.541587	1320.516596	-234.422439	393.523517	1176.847885	-250.888356	420.206719	1022.382023	52.153452	591.131492	908.112282	0.885462	448.195543	1023.950332	-486.269277	624.620132	908.847861	-397.142980	-106.620372	1089.120854	-196.137909	31.854601	1136.821965	-361.307630	82.918932	1103.314100	-74.890547	85.281792	1046.698493	-344.861614	88.040913	1029.382862	-86.645693	-65.471587	1146.038546	-138.240017	-69.870607	1160.481668	-247.112792	-17.978974	992.625663	-21.109661	-32.153390	986.736544	-395.960276	78.770768	878.026949	-2.228689	156.133266	836.846955	-19.035731	199.882199	763.972023	-29.140316	179.822272	865.271257	-26.105600	272.638685	684.548201	-48.536263	250.721798	680.442296	-166.571615	177.123080	621.968190	-19.518223	128.124575	550.123079	-38.729842	51.375721	511.093521	-43.271342	148.903060	533.277249	-66.678633	-32.160368	450.008136	-62.104877	-0.512429	443.725988	-140.407400	-81.450611	463.806982	-112.528899	89.368985	291.675771	-93.499042	5.244493	326.119641	-38.558614	81.798699	901.093256	-413.996794	165.686387	880.166192	-405.501129	182.686747	911.090052	-395.639224	228.971590	817.399304	-401.700671	326.349692	745.651937	-381.953675	335.678821	746.735966	-263.292430	225.665946	388.380056	-369.430437	240.065840	393.753945	-287.867020	172.192629	351.139529	-328.517533	348.212519	312.140711	-386.016326	275.291153	640.079042	-405.838127	287.271886	553.916926	-390.882139	251.545344	472.392121	-385.320056	315.275600	554.069256	-365.716595	424.219182	352.314383	-325.826926	-204.324328	832.842548	-223.861846	-78.208905	81.719936	-423.638690	-102.351627	80.394038	-24.030391	
1256	6.2800	442.038620	1254.776878	-84.784396	415.413300	1284.656143	-386.704228	391.134926	1321.164772	-232.999850	392.933798	1177.454520	-248.998341	419.558593	1022.304310	52.185415	591.085087	908.232446	1.125033	449.259903	1024.163483	-485.995598	624.694645	908.726968	-397.346706	-107.005613	1087.336030	-196.508308	31.814427	1134.437827	-362.722993	82.039713	1103.237178	-75.738811	85.815911	1045.176426	-346.020877	88.038386	1029.017330	-87.917182	-65.831066	1144.162226	-139.393876	-70.231622	1158.393283	-248.270887	-16.054579	991.630497	-21.421996	-32.926522	981.847757	-396.137762	82.630065	879.029780	-2.757237	160.637470	839.469766	-19.664075	205.903524	767.540687	-30.450914	183.558187	868.420576	-28.135563	279.611794	690.491793	-50.310744	257.727675	687.481122	-166.820091	183.117021	628.981206	-20.143649	132.715646	558.036512	-39.250333	55.159153	520.390984	-43.389613	152.944223	541.088785	-67.428046	-29.479385	460.998498	-61.999555	2.059653	454.370478	-140.476443	-78.931671	475.120092	-112.546145	89.964502	301.254134	-93.377187	6.359825	336.679918	-38.201854	79.855968	894.566289	-414.468040	163.485815	871.928040	-406.511049	181.176656	902.951478	-398.038844	225.326857	807.846486	-401.062145	321.968014	736.753421	-381.711284	329.946530	739.435615	-262.945937	224.727034	377.617269	-369.730471	239.099918	382.744733	-288.319039	171.488938	340.066823	-328.710033	347.623826	301.162731	-385.973885	272.580877	629.817038	-406.180263	284.640912	543.919935	-390.852169	249.647803	462.188693	-385.736659	312.345784	544.214032	-365.348563	423.632699	341.356404	-325.766104	-204.418119	833.078315	-224.463946	-78.197133	81.692646	-423.616020	-102.449276	80.426055	-24.188155	
1257	6.2850	439.747248	1255.862724	-82.442049	416.797296	1284.982791	-385.903920	390.582278	1321.546350	-231.539409	393.262968	1177.822503	-247.167166	418.966450	1022.184282	52.283666	591.065027	908.285487	1.411666	450.306284	1024.370669	-485.604654	624.791581	908.620881	-397.484239	-107.347881	1085.398259	-197.129968	32.027129	1132.089660	-364.377187	81.329804	1103.337241	-76.548816	86.246491	1043.507840	-347.267163	87.978231	1028.626126	-89.013173	-65.671478	1142.126701	-141.013141	-70.565450	1156.147908	-249.956359	-14.354877	990.812898	-21.689303	-33.564205	976.851087	-396.526340	86.392823	880.060319	-3.568404	165.363427	842.450908	-21.471182	212.430394	771.636413	-31.759143	187.304878	871.976461	-30.178099	286.560696	697.024957	-51.854782	263.152889	692.753543	-168.071822	189.447061	636.213244	-20.765347	137.533346	566.150148	-39.756288	59.506770	529.589065	-43.596569	157.335611	548.878633	-68.174327	-26.095107	472.072912	-61.700429	5.106765	465.043548	-140.604054	-75.806443	487.355330	-111.511508	90.740629	310.870775	-94.096748	7.837037	347.337000	-38.545723	77.801360	888.017756	-414.850936	161.038133	863.838362	-407.351768	179.484422	894.631633	-399.819675	222.181260	798.916403	-400.957170	317.333370	728.526700	-381.480735	324.811944	731.908807	-262.220514	223.248134	366.972725	-369.912690	237.924838	372.171732	-288.732457	170.359441	329.401942	-328.600220	346.366591	290.323997	-385.924801	268.960473	619.963936	-405.697836	281.515606	534.092818	-390.657920	246.915832	452.094017	-385.848832	309.003891	534.452306	-364.304020	422.709019	330.773627	-326.262597	-204.406832	833.079132	-224.515092	-78.202420	81.696515	-423.625462	-102.609973	80.454538	-24.411071	
